<svg width="28" height="30" viewBox="0 0 28 30" fill="none" xmlns="http://www.w3.org/2000/svg">
<path d="M13.9156 1.81586C17.1416 1.81586 19.7811 4.34503 19.7811 7.4453V10.26C19.7811 12.0141 18.7337 16.5013 13.9156 16.5013C9.0975 16.5013 8.05009 12.0141 8.05009 10.26V7.4453C8.05009 4.34503 10.6896 1.81586 13.9156 1.81586ZM13.9156 1C10.2287 1 7.21216 3.8963 7.21216 7.4453V10.26C7.21216 12.5036 8.63664 17.3172 13.9156 17.3172C19.1946 17.3172 20.619 12.5036 20.619 10.26V7.4453C20.619 3.8963 17.6025 1 13.9156 1Z" fill="#4997CC" stroke="#4997CC" stroke-width="0.8"/>
<path d="M26.9999 27.2527C26.5 24 24.5 22.5 23.5 22C22.5 21.5 20.8376 21.2527 19.8106 20.7527C18.7835 20.2527 17.6865 19.1331 17.6865 19.1331" stroke="#4997CC" stroke-width="1.8" stroke-miterlimit="10" stroke-linecap="round"/>
<path d="M10.145 19.1331C10.145 19.1331 8.00828 20.6424 4.27948 21.9886C1.97518 22.8453 1.26293 25.2112 1.01156 26.5982C0.927762 27.2101 1.30483 27.822 1.97518 27.9852C4.1538 28.4747 7.84069 28.9234 13.9157 28.9234C21.2476 28.9234 25.4498 27.7015 27 27.2527" stroke="#4997CC" stroke-width="1.8" stroke-miterlimit="10" stroke-linecap="round"/>
</svg>
