<svg width="58" height="58" viewBox="0 0 58 58" fill="none" xmlns="http://www.w3.org/2000/svg">
<g filter="url(#filter0_d)">
<circle cx="29" cy="29" r="25" fill="white"/>
</g>
<path d="M43.25 41.3366L26.5 43.8462L14.6667 41.4231C14.25 41.3366 14 40.9904 14 40.5577V17.8846C14 17.3654 14.3333 17.0193 14.8333 17.0193L26.5 16.1539L43.1667 17.0193C43.6667 17.0193 44 17.3654 44 17.8846V40.4712C44 40.9039 43.6667 41.3366 43.25 41.3366Z" stroke="#4997CC" stroke-width="2" stroke-miterlimit="10"/>
<path d="M26.6923 40.3846V19.6154" stroke="#4997CC" stroke-width="2" stroke-miterlimit="10" stroke-linecap="round"/>
<path d="M30.1538 37.4469V35.4504C30.1538 35.1062 30.5384 34.8997 31.0192 34.8308L34.8653 34.6243C35.4423 34.5554 35.923 34.8997 35.923 35.2439V37.1026C35.923 37.4469 35.5384 37.6534 35.0577 37.7222L31.2115 38.0664C30.6346 38.1353 30.1538 37.8599 30.1538 37.4469Z" stroke="#4997CC" stroke-width="2" stroke-miterlimit="10" stroke-linecap="round"/>
<path d="M46.8984 17H44.918V10.6953L42.9727 11.2637V9.76367L46.7168 8.46875H46.8984V17Z" fill="white"/>
<defs>
<filter id="filter0_d" x="0" y="0" width="58" height="58" filterUnits="userSpaceOnUse" color-interpolation-filters="sRGB">
<feFlood flood-opacity="0" result="BackgroundImageFix"/>
<feColorMatrix in="SourceAlpha" type="matrix" values="0 0 0 0 0 0 0 0 0 0 0 0 0 0 0 0 0 0 127 0"/>
<feOffset/>
<feGaussianBlur stdDeviation="2"/>
<feColorMatrix type="matrix" values="0 0 0 0 0 0 0 0 0 0 0 0 0 0 0 0 0 0 0.25 0"/>
<feBlend mode="normal" in2="BackgroundImageFix" result="effect1_dropShadow"/>
<feBlend mode="normal" in="SourceGraphic" in2="effect1_dropShadow" result="shape"/>
</filter>
</defs>
</svg>
