<svg width="58" height="58" viewBox="0 0 58 58" fill="none" xmlns="http://www.w3.org/2000/svg">
<g filter="url(#filter0_d)">
<circle cx="29" cy="29" r="25" fill="white"/>
</g>
<path d="M20.2672 15.65V23.1367H19.0164C17.3123 23.1367 15.9 24.4993 15.9 26.1922V33.8297C15.9 35.5225 17.3123 36.8852 19.0164 36.8852H20.2672V42.95C20.2672 43.3456 20.6216 43.7 21.0172 43.7H36.9828C37.3784 43.7 37.7328 43.3456 37.7328 42.95V36.8852H38.9734C40.6771 36.8852 42.1 35.5262 42.1 33.8297V26.1922C42.1 24.4957 40.6771 23.1367 38.9734 23.1367H37.7328V15.65C37.7328 15.2544 37.3784 14.9 36.9828 14.9H21.0172C20.8067 14.9 20.6194 15.0064 20.4872 15.147C20.3558 15.2867 20.2672 15.4726 20.2672 15.65ZM21.7672 16.4H36.2328V23.1367H21.7672V16.4ZM19.0164 24.6367H38.9734C39.8959 24.6367 40.6 25.3323 40.6 26.1922V33.8297C40.6 34.6896 39.8959 35.3852 38.9734 35.3852H37.7328V32.4992C37.7328 32.1037 37.3784 31.7493 36.9828 31.7492H21.0172C20.8067 31.7492 20.6194 31.8556 20.4872 31.9962C20.3558 32.1359 20.2672 32.3218 20.2672 32.4992V35.3852H19.0164C18.0946 35.3852 17.4 34.6934 17.4 33.8297V26.1922C17.4 25.3285 18.0946 24.6367 19.0164 24.6367ZM35.2969 26.3055C34.7485 26.3055 34.3031 26.7394 34.3031 27.2789C34.3031 27.8184 34.7485 28.2523 35.2969 28.2523C35.8452 28.2523 36.2906 27.8184 36.2906 27.2789C36.2906 26.7394 35.8452 26.3055 35.2969 26.3055ZM37.7242 26.3055C37.1759 26.3055 36.7305 26.7394 36.7305 27.2789C36.7305 27.8184 37.1759 28.2523 37.7242 28.2523C38.2726 28.2523 38.718 27.8184 38.718 27.2789C38.718 26.7394 38.2726 26.3055 37.7242 26.3055ZM21.7672 33.2492H36.2328V42.2H21.7672V33.2492ZM23.0695 35.6391C22.6706 35.6338 22.3095 35.9901 22.3095 36.3891C22.3095 36.788 22.6706 37.1443 23.0695 37.1391H34.9305C35.3294 37.1443 35.6905 36.788 35.6905 36.3891C35.6905 35.9901 35.3294 35.6338 34.9305 35.6391H23.0695ZM22.2882 39.0835C22.3006 39.486 22.6821 39.8 23.0687 39.8H34.9305C35.3294 39.8052 35.6905 39.449 35.6905 39.05C35.6905 38.651 35.3294 38.2948 34.9305 38.3H23.0687C22.8472 38.3 22.6497 38.4083 22.511 38.5549C22.3731 38.7006 22.2824 38.8954 22.2882 39.0835Z" fill="#4997CC" stroke="#4997CC" stroke-width="0.2"/>
<defs>
<filter id="filter0_d" x="0" y="0" width="58" height="58" filterUnits="userSpaceOnUse" color-interpolation-filters="sRGB">
<feFlood flood-opacity="0" result="BackgroundImageFix"/>
<feColorMatrix in="SourceAlpha" type="matrix" values="0 0 0 0 0 0 0 0 0 0 0 0 0 0 0 0 0 0 127 0"/>
<feOffset/>
<feGaussianBlur stdDeviation="2"/>
<feColorMatrix type="matrix" values="0 0 0 0 0 0 0 0 0 0 0 0 0 0 0 0 0 0 0.25 0"/>
<feBlend mode="normal" in2="BackgroundImageFix" result="effect1_dropShadow"/>
<feBlend mode="normal" in="SourceGraphic" in2="effect1_dropShadow" result="shape"/>
</filter>
</defs>
</svg>
