<svg width="47" height="41" viewBox="0 0 47 41" fill="none" xmlns="http://www.w3.org/2000/svg">
<path d="M18.9443 2.16418C23.4264 2.16418 27.0936 5.77314 27.0936 10.197V14.2134C27.0936 16.7164 25.6383 23.1194 18.9443 23.1194C12.2503 23.1194 10.795 16.7164 10.795 14.2134V10.197C10.795 5.77314 14.4622 2.16418 18.9443 2.16418ZM18.9443 1C13.8219 1 9.63086 5.13284 9.63086 10.197V14.2134C9.63086 17.4149 11.61 24.2836 18.9443 24.2836C26.2786 24.2836 28.2577 17.4149 28.2577 14.2134V10.197C28.2577 5.13284 24.0667 1 18.9443 1Z" fill="#4997CC" stroke="#4997CC" stroke-width="0.3"/>
<path d="M26.5117 26.9612C24.9983 26.0881 24.1833 25.4478 24.1833 25.4478" stroke="#4997CC" stroke-width="1.43" stroke-miterlimit="10" stroke-linecap="round"/>
<path d="M13.7056 25.4478C13.7056 25.4478 10.737 27.6015 5.55635 29.5224C2.35486 30.7448 1.36531 34.1209 1.01605 36.1C0.899637 36.9731 1.42352 37.8463 2.35486 38.0791C5.38173 38.7776 10.5041 39.4179 18.9444 39.4179C29.131 39.4179 33.8459 38.4866 35.9996 37.8463" stroke="#4997CC" stroke-width="1.43" stroke-miterlimit="10" stroke-linecap="round"/>
<path d="M29.5966 22.4208L30.4115 20.9074C30.6444 20.5581 30.8772 20.3835 31.2265 20.5581L32.6235 21.082C33.4966 20.2089 34.5444 19.5686 35.825 19.2775L35.9996 17.7641C36.0578 17.3567 36.3488 17.2402 36.6981 17.2402H38.4444C38.7936 17.2402 39.0265 17.4149 39.0847 17.7641L39.3175 19.2775C40.5399 19.5686 41.6459 20.2089 42.4608 21.082L43.916 20.5581C44.2653 20.3835 44.4399 20.5581 44.6727 20.9074L45.5459 22.4208C45.7205 22.7701 45.7787 23.0611 45.4294 23.294L44.207 24.1671C44.5563 25.3895 44.5563 26.6701 44.207 27.8343L45.4294 28.7656C45.7787 28.9984 45.7205 29.2895 45.5459 29.5805L44.6727 31.1522C44.4399 31.4432 44.207 31.6761 43.916 31.5014L42.4608 30.9193C41.6459 31.7925 40.5399 32.4328 39.3175 32.782L39.0847 34.2955C39.0265 34.7029 38.7354 34.8193 38.4444 34.8193H36.6981C36.2906 34.8193 36.0578 34.7029 35.9996 34.2955L35.825 32.782C34.5444 32.4328 33.4966 31.7925 32.6235 30.9193L31.2265 31.5014C30.819 31.6761 30.6444 31.4432 30.4115 31.1522L29.5966 29.6387C29.3638 29.2895 29.3638 29.0567 29.713 28.8238L30.8772 27.8925C30.5279 26.6701 30.5279 25.3895 30.8772 24.2253L29.713 23.3522C29.3638 23.0611 29.3638 22.7701 29.5966 22.4208Z" stroke="#4997CC" stroke-width="1.43" stroke-miterlimit="10" stroke-linejoin="round"/>
<path d="M37.5713 28.9403C39.1787 28.9403 40.4818 27.6372 40.4818 26.0298C40.4818 24.4224 39.1787 23.1194 37.5713 23.1194C35.9639 23.1194 34.6609 24.4224 34.6609 26.0298C34.6609 27.6372 35.9639 28.9403 37.5713 28.9403Z" stroke="#4997CC" stroke-width="1.43" stroke-miterlimit="10" stroke-linejoin="round"/>
</svg>
