<svg width="43" height="42" viewBox="0 0 43 42" fill="none" xmlns="http://www.w3.org/2000/svg">
<path d="M20.879 28.886H4.22363C2.45063 28.886 1 27.4097 1 25.6053V4.28071C1 2.47632 2.45063 1 4.22363 1H38.609C40.382 1 41.8326 2.47632 41.8326 4.28071V25.6053C41.8326 27.4097 40.382 28.886 38.609 28.886H38.0717" stroke="#4997CC" stroke-width="1.44507" stroke-miterlimit="10" stroke-linecap="round" stroke-linejoin="round"/>
<path d="M6.90991 3.73395H36.4598C37.0508 3.73395 37.5344 4.22605 37.5344 4.82752V25.0586C37.5344 25.66 37.0508 26.1521 36.4598 26.1521" stroke="#4997CC" stroke-width="1.44507" stroke-miterlimit="10" stroke-linecap="round" stroke-linejoin="round"/>
<path d="M20.8792 26.1521H6.37288C5.78188 26.1521 5.29834 25.66 5.29834 25.0585V5.37427" stroke="#4997CC" stroke-width="1.44507" stroke-miterlimit="10" stroke-linecap="round" stroke-linejoin="round"/>
<path d="M24.1028 29.9796V21.231H25.9833C26.7892 21.231 27.4339 21.8325 27.5951 22.598L28.401 27.7924H33.129C34.7408 27.7924 35.9765 29.2141 35.8153 30.7998C35.4392 34.5179 34.0423 40.3685 28.9382 40.3685C22.491 40.3685 21.2015 34.3539 20.9329 32.6041C20.8792 32.3308 21.0404 32.112 21.309 32.0027L22.491 31.6199" stroke="#4997CC" stroke-width="1.44507" stroke-miterlimit="10" stroke-linecap="round" stroke-linejoin="round"/>
<path d="M18.7299 10.514C19.7507 11.6076 20.3417 13.0292 20.3417 14.6696C20.3417 18.005 17.7091 20.6842 14.4317 20.6842C11.1544 20.6842 8.52173 18.005 8.52173 14.6696C8.52173 11.3342 11.1544 8.65497 14.4317 8.65497V14.6696L17.1181 11.9357" stroke="#4997CC" stroke-width="1.44507" stroke-miterlimit="10" stroke-linecap="round" stroke-linejoin="round"/>
<path d="M25.1772 18.4971H24.1027C23.7803 18.4971 23.5654 18.2784 23.5654 17.9503V14.1228C23.5654 13.7948 23.7803 13.576 24.1027 13.576H25.1772C25.4996 13.576 25.7145 13.7948 25.7145 14.1228V17.9503C25.7145 18.2784 25.4996 18.4971 25.1772 18.4971Z" stroke="#4997CC" stroke-width="1.44507" stroke-miterlimit="10" stroke-linecap="round" stroke-linejoin="round"/>
<path d="M29.4753 9.74854H28.4008C28.0784 9.74854 27.8635 9.96725 27.8635 10.2953V17.9503C27.8635 18.2784 28.0784 18.4971 28.4008 18.4971H29.4753C29.7977 18.4971 30.0126 18.2784 30.0126 17.9503V10.2953C30.0126 9.96725 29.7977 9.74854 29.4753 9.74854Z" stroke="#4997CC" stroke-width="1.44507" stroke-miterlimit="10" stroke-linecap="round" stroke-linejoin="round"/>
<path d="M33.7734 11.9357H32.6989C32.3765 11.9357 32.1616 12.1544 32.1616 12.4825V17.9503C32.1616 18.2784 32.3765 18.4971 32.6989 18.4971H33.7734C34.0958 18.4971 34.3107 18.2784 34.3107 17.9503V12.4825C34.3107 12.1544 34.0958 11.9357 33.7734 11.9357Z" stroke="#4997CC" stroke-width="1.44507" stroke-miterlimit="10" stroke-linecap="round" stroke-linejoin="round"/>
</svg>
