<svg width="47" height="39" viewBox="0 0 47 39" fill="none" xmlns="http://www.w3.org/2000/svg">
<path d="M17.765 32.0147C17.765 33.5382 16.5679 34.7353 15.0444 34.7353H14.5003C13.5753 34.7353 12.8679 35.4427 12.8679 36.3677C12.8679 37.2927 13.5753 38 14.5003 38H31.912C32.837 38 33.5444 37.2927 33.5444 36.3677C33.5444 35.4427 32.837 34.7353 31.912 34.7353H31.3679C29.8444 34.7353 28.6473 33.5382 28.6473 32.0147" stroke="#4997CC" stroke-width="1.4" stroke-miterlimit="10" stroke-linecap="round"/>
<path d="M40.5635 23.8529H4.70618C4.43412 23.8529 4.16206 23.5809 4.21648 23.3088L5.19588 4.21029C5.19588 3.93823 5.41352 3.72058 5.68558 3.72058H40.7812C41.0532 3.72058 41.2709 3.93823 41.2709 4.21029L42.1959 22.1118" stroke="#4997CC" stroke-width="1.4" stroke-miterlimit="10" stroke-linecap="round"/>
<path d="M4.32521 1H42.1414C43.2296 1 44.1546 1.925 44.2635 3.01324L45.5693 26.3559C45.6782 28.2603 44.3179 29.8382 42.5767 29.8382H3.99875C2.25757 29.8382 0.897279 28.2603 1.0061 26.3559L2.31198 3.01324" stroke="#4997CC" stroke-width="1.4" stroke-miterlimit="10" stroke-linecap="round" stroke-linejoin="round"/>
<path d="M9.60386 9.16176C10.2049 9.16176 10.6921 8.67454 10.6921 8.07353C10.6921 7.47251 10.2049 6.98529 9.60386 6.98529C9.00284 6.98529 8.51562 7.47251 8.51562 8.07353C8.51562 8.67454 9.00284 9.16176 9.60386 9.16176Z" fill="#4997CC"/>
<path d="M37.3539 20.5882C37.9549 20.5882 38.4421 20.101 38.4421 19.5C38.4421 18.899 37.9549 18.4117 37.3539 18.4117C36.7528 18.4117 36.2656 18.899 36.2656 19.5C36.2656 20.101 36.7528 20.5882 37.3539 20.5882Z" fill="#4997CC"/>
<path d="M12.8679 8.07355H30.2797C31.2047 8.07355 31.912 8.7809 31.912 9.7059V10.25C31.912 11.175 31.2047 11.8824 30.2797 11.8824H24.8385C23.9135 11.8824 23.2062 12.5897 23.2062 13.5147C23.2062 14.4397 22.4988 15.1471 21.5738 15.1471H16.1326C15.2076 15.1471 14.5003 15.8544 14.5003 16.7794V17.3235C14.5003 18.2485 15.2076 18.9559 16.1326 18.9559H31.3679" stroke="#4997CC" stroke-width="1.4" stroke-miterlimit="10" stroke-linecap="round" stroke-linejoin="round"/>
<path d="M32.4563 16.7794L33.871 18.1941C34.3063 18.6294 34.3063 19.2824 33.871 19.7177L32.4563 21.1324" stroke="#4997CC" stroke-width="1.4" stroke-miterlimit="10" stroke-linecap="round" stroke-linejoin="round"/>
</svg>
