<svg width="43" height="41" viewBox="0 0 43 41" fill="none" xmlns="http://www.w3.org/2000/svg">
<path d="M21.1921 36.6771C20.3374 36.6771 19.6838 36.0239 19.6838 35.1697V2.50748C19.6838 1.70349 20.3374 1 21.1921 1C21.9965 1 22.7004 1.65324 22.7004 2.50748V35.1697C22.7004 36.0239 22.0468 36.6771 21.1921 36.6771Z" stroke="#4997CC" stroke-width="1.42852" stroke-miterlimit="10" stroke-linecap="round"/>
<path d="M25.2645 33.9135C27.3761 34.5164 28.7336 35.5214 28.7336 36.6772C28.7336 38.4862 25.3651 39.9434 21.1922 39.9434C17.0193 39.9434 13.6509 38.4862 13.6509 36.6772C13.6509 35.5214 15.0586 34.5164 17.1702 33.9135" stroke="#4997CC" stroke-width="1.53445" stroke-miterlimit="10" stroke-linecap="round"/>
<path d="M4.70179 5.12048L1.33332 10.1454C0.880844 10.8489 0.880844 11.7534 1.3836 12.4067L5.00344 17.4819C5.40565 18.0346 6.00896 18.3361 6.66254 18.3361H17.1701" stroke="#4997CC" stroke-width="1.53445" stroke-miterlimit="10" stroke-linecap="round"/>
<path d="M17.1199 3.76373H7.16528" stroke="#4997CC" stroke-width="1.42852" stroke-miterlimit="10" stroke-linecap="round"/>
<path d="M25.2144 11.8036H35.722C36.3755 11.8036 37.0291 12.1554 37.3811 12.7081L41.0512 18.1853C41.5037 18.8888 41.5037 19.7933 41.0009 20.4466L37.3811 25.5218C36.9789 26.0745 36.3755 26.376 35.722 26.376H25.2144" stroke="#4997CC" stroke-width="1.42852" stroke-miterlimit="10" stroke-linecap="round"/>
</svg>
