<svg width="49" height="42" viewBox="0 0 49 42" fill="none" xmlns="http://www.w3.org/2000/svg">
<path d="M36.1352 41H13.4865C11.6487 41 10.1892 39.5946 10.1892 37.8649V37.3243V20.4595V4.13513C10.1892 2.4054 11.7027 1 13.4865 1H35C36.8379 1 38.2973 2.4054 38.2973 4.13513V38.8378" stroke="#4997CC" stroke-width="1.4" stroke-miterlimit="10" stroke-linecap="round" stroke-linejoin="round"/>
<path d="M14.5135 4.78381H34.5135C35.1081 4.78381 35.5945 5.2703 35.5945 5.86489V36.1352C35.5945 36.7298 35.1081 37.2162 34.5135 37.2162H13.9729C13.3783 37.2162 12.8918 36.7298 12.8918 36.1352V20.4595V6.40544" stroke="#4997CC" stroke-width="1.4" stroke-miterlimit="10" stroke-linecap="round" stroke-linejoin="round"/>
<path d="M16.8379 17.6487L17.5947 16.2433C17.8109 15.919 18.0271 15.7568 18.3515 15.919L19.6488 16.4055C20.4596 15.5947 21.4325 15.0001 22.6217 14.7298L22.7839 13.3244C22.8379 12.946 23.1082 12.8379 23.4325 12.8379H25.0542C25.3785 12.8379 25.5947 13 25.6488 13.3244L25.865 14.7298C27.0001 15.0001 28.0271 15.5947 28.7839 16.4055L30.1352 15.919C30.4596 15.7568 30.6217 15.919 30.8379 16.2433L31.6488 17.6487C31.8109 17.973 31.865 18.2433 31.5406 18.4595L30.4055 19.2703C30.7298 20.4055 30.7298 21.5947 30.4055 22.6757L31.5406 23.5406C31.865 23.7568 31.8109 24.0271 31.6488 24.2974L30.8379 25.7027C30.6217 25.973 30.4055 26.1892 30.1352 26.0271L28.7839 25.4865C28.0271 26.2973 27.0001 26.8919 25.865 27.2163L25.6488 28.6217C25.5947 29.0001 25.3244 29.1082 25.0542 29.1082H23.4325C23.0542 29.1082 22.8379 29.0001 22.7839 28.6217L22.6217 27.2163C21.4325 26.8919 20.4596 26.2973 19.6488 25.4865L18.3515 26.0271C17.9731 26.1892 17.8109 25.973 17.5947 25.7027L16.8379 24.2974C16.6217 23.973 16.6217 23.7568 16.9461 23.5406L18.0271 22.6757C17.7028 21.5406 17.7028 20.3514 18.0271 19.2703L16.9461 18.4595C16.6217 18.2973 16.6217 17.973 16.8379 17.6487Z" stroke="#4997CC" stroke-width="1.4" stroke-miterlimit="10" stroke-linejoin="round"/>
<path d="M24.2432 23.7026C25.7359 23.7026 26.9459 22.4926 26.9459 20.9999C26.9459 19.5073 25.7359 18.2972 24.2432 18.2972C22.7506 18.2972 21.5405 19.5073 21.5405 20.9999C21.5405 22.4926 22.7506 23.7026 24.2432 23.7026Z" stroke="#4997CC" stroke-width="1.4" stroke-miterlimit="10" stroke-linejoin="round"/>
<path d="M1.00049 6.4054H7.48697" stroke="#4997CC" stroke-width="1.4" stroke-miterlimit="10" stroke-linecap="round" stroke-linejoin="round"/>
<path d="M41 6.4054H47.4865" stroke="#4997CC" stroke-width="1.4" stroke-miterlimit="10" stroke-linecap="round" stroke-linejoin="round"/>
<path d="M1 36.1351H7.48649" stroke="#4997CC" stroke-width="1.4" stroke-miterlimit="10" stroke-linecap="round" stroke-linejoin="round"/>
<path d="M41 36.1351H47.4865" stroke="#4997CC" stroke-width="1.4" stroke-miterlimit="10" stroke-linecap="round" stroke-linejoin="round"/>
<path d="M2.62158 21H3.70266" stroke="#4997CC" stroke-width="1.4" stroke-miterlimit="10" stroke-linecap="round" stroke-linejoin="round"/>
<path d="M6.40527 21H7.48635" stroke="#4997CC" stroke-width="1.4" stroke-miterlimit="10" stroke-linecap="round" stroke-linejoin="round"/>
<path d="M41 21H42.0811" stroke="#4997CC" stroke-width="1.4" stroke-miterlimit="10" stroke-linecap="round" stroke-linejoin="round"/>
<path d="M44.7837 21H45.8648" stroke="#4997CC" stroke-width="1.4" stroke-miterlimit="10" stroke-linecap="round" stroke-linejoin="round"/>
</svg>
