<svg width="140" height="76" viewBox="0 0 140 76" fill="none" xmlns="http://www.w3.org/2000/svg">
<rect x="1.94653" y="72.446" width="0.249525" height="136.758" transform="rotate(-90 1.94653 72.446)" fill="#EEEEF7"/>
<rect x="1.94702" y="62.2153" width="0.249525" height="136.758" transform="rotate(-90 1.94702 62.2153)" fill="#EEEEF7"/>
<rect x="1.94702" y="51.9847" width="0.249525" height="136.758" transform="rotate(-90 1.94702 51.9847)" fill="#EEEEF7"/>
<rect x="1.94702" y="41.7544" width="0.249525" height="136.758" transform="rotate(-90 1.94702 41.7544)" fill="#EEEEF7"/>
<rect x="1.94702" y="31.5239" width="0.249525" height="136.758" transform="rotate(-90 1.94702 31.5239)" fill="#EEEEF7"/>
<rect x="1.94702" y="21.2933" width="0.249525" height="136.758" transform="rotate(-90 1.94702 21.2933)" fill="#EEEEF7"/>
<rect x="1.94702" y="11.0628" width="0.249525" height="136.758" transform="rotate(-90 1.94702 11.0628)" fill="#EEEEF7"/>
<rect x="1.94702" y="0.832397" width="0.249525" height="136.758" transform="rotate(-90 1.94702 0.832397)" fill="#EEEEF7"/>
<path d="M17.4033 69.4484H17.3376V69.0124L17.2057 69.0608V69.0014L17.3931 68.931H17.4033V69.4484ZM17.9073 69.0679C17.9073 69.0936 17.9004 69.1164 17.8868 69.1365C17.8733 69.1565 17.8551 69.1722 17.832 69.1835C17.8588 69.1951 17.8801 69.2119 17.8956 69.2341C17.9114 69.2562 17.9193 69.2814 17.9193 69.3094C17.9193 69.354 17.9042 69.3895 17.874 69.4159C17.8441 69.4423 17.8046 69.4555 17.7556 69.4555C17.7061 69.4555 17.6663 69.4423 17.6364 69.4159C17.6067 69.3892 17.5918 69.3537 17.5918 69.3094C17.5918 69.2816 17.5994 69.2565 17.6145 69.2341C17.6298 69.2117 17.6509 69.1947 17.6778 69.1832C17.6549 69.1718 17.6369 69.1562 17.6237 69.1361C17.6105 69.1161 17.6039 69.0933 17.6039 69.0679C17.6039 69.0245 17.6178 68.9901 17.6456 68.9646C17.6734 68.9391 17.7101 68.9264 17.7556 68.9264C17.8008 68.9264 17.8374 68.9391 17.8652 68.9646C17.8933 68.9901 17.9073 69.0245 17.9073 69.0679ZM17.8539 69.308C17.8539 69.2792 17.8447 69.2558 17.8263 69.2376C17.8081 69.2195 17.7843 69.2104 17.7549 69.2104C17.7254 69.2104 17.7017 69.2194 17.6838 69.2373C17.6661 69.2552 17.6573 69.2788 17.6573 69.308C17.6573 69.3372 17.6659 69.3602 17.6831 69.377C17.7005 69.3937 17.7247 69.4021 17.7556 69.4021C17.7862 69.4021 17.8103 69.3937 17.8277 69.377C17.8452 69.36 17.8539 69.337 17.8539 69.308ZM17.7556 68.9802C17.7299 68.9802 17.709 68.9882 17.693 69.0042C17.6772 69.02 17.6693 69.0416 17.6693 69.0689C17.6693 69.0951 17.6771 69.1163 17.6926 69.1326C17.7084 69.1486 17.7294 69.1566 17.7556 69.1566C17.7817 69.1566 17.8026 69.1486 17.8182 69.1326C17.834 69.1163 17.8419 69.0951 17.8419 69.0689C17.8419 69.0428 17.8337 69.0214 17.8175 69.0049C17.8012 68.9884 17.7806 68.9802 17.7556 68.9802ZM18.1446 69.2564H17.972V69.203H18.1446V69.2564ZM18.5392 69.4484H18.2019V69.4014L18.3801 69.2033C18.4065 69.1734 18.4247 69.1491 18.4346 69.1305C18.4447 69.1116 18.4498 69.0922 18.4498 69.0721C18.4498 69.0452 18.4416 69.0232 18.4254 69.006C18.4091 68.9888 18.3874 68.9802 18.3603 68.9802C18.3278 68.9802 18.3024 68.9895 18.2843 69.0081C18.2663 69.0265 18.2574 69.0522 18.2574 69.0852H18.192C18.192 69.0378 18.2072 68.9995 18.2376 68.9703C18.2682 68.941 18.3091 68.9264 18.3603 68.9264C18.4082 68.9264 18.446 68.939 18.4738 68.9643C18.5016 68.9892 18.5155 69.0226 18.5155 69.0643C18.5155 69.115 18.4832 69.1754 18.4187 69.2454L18.2807 69.395H18.5392V69.4484ZM18.8848 69.2755H18.9562V69.3289H18.8848V69.4484H18.819V69.3289H18.5845V69.2903L18.8151 68.9335H18.8848V69.2755ZM18.6588 69.2755H18.819V69.023L18.8112 69.0371L18.6588 69.2755Z" fill="#8794BA"/>
<path d="M72.4077 69.1591H72.4569C72.4878 69.1586 72.5121 69.1505 72.5297 69.1347C72.5474 69.1189 72.5563 69.0976 72.5563 69.0707C72.5563 69.0103 72.5262 68.9802 72.4661 68.9802C72.4378 68.9802 72.4152 68.9883 72.3982 69.0046C72.3814 69.0206 72.3731 69.0419 72.3731 69.0686H72.3076C72.3076 69.0278 72.3225 68.994 72.3522 68.9671C72.3821 68.94 72.4201 68.9264 72.4661 68.9264C72.5146 68.9264 72.5527 68.9393 72.5803 68.965C72.6079 68.9907 72.6217 69.0264 72.6217 69.0721C72.6217 69.0945 72.6144 69.1162 72.5998 69.1372C72.5854 69.1582 72.5657 69.1739 72.5407 69.1842C72.569 69.1932 72.5908 69.208 72.6061 69.2288C72.6217 69.2495 72.6295 69.2749 72.6295 69.3048C72.6295 69.351 72.6144 69.3877 72.5842 69.4148C72.554 69.4419 72.5148 69.4555 72.4664 69.4555C72.4181 69.4555 72.3787 69.4424 72.3483 69.4162C72.3181 69.39 72.303 69.3555 72.303 69.3126H72.3688C72.3688 69.3397 72.3777 69.3614 72.3953 69.3777C72.413 69.3939 72.4367 69.4021 72.4664 69.4021C72.498 69.4021 72.5222 69.3938 72.5389 69.3773C72.5557 69.3608 72.564 69.3371 72.564 69.3062C72.564 69.2763 72.5548 69.2533 72.5365 69.2373C72.5181 69.2212 72.4915 69.213 72.4569 69.2125H72.4077V69.1591ZM72.7493 69.1902L72.7755 68.9335H73.0393V68.994H72.831L72.8155 69.1344C72.8407 69.1195 72.8693 69.1121 72.9014 69.1121C72.9483 69.1121 72.9856 69.1276 73.0132 69.1588C73.0407 69.1896 73.0545 69.2315 73.0545 69.2843C73.0545 69.3374 73.0402 69.3792 73.0114 69.4098C72.9829 69.4403 72.9429 69.4555 72.8915 69.4555C72.846 69.4555 72.8089 69.4429 72.7801 69.4176C72.7513 69.3924 72.735 69.3575 72.731 69.3129H72.7928C72.7968 69.3424 72.8073 69.3647 72.8243 69.3798C72.8413 69.3946 72.8637 69.4021 72.8915 69.4021C72.9219 69.4021 72.9457 69.3917 72.9629 69.3709C72.9804 69.3502 72.9891 69.3216 72.9891 69.285C72.9891 69.2506 72.9797 69.223 72.9608 69.2023C72.9422 69.1813 72.9173 69.1708 72.8862 69.1708C72.8577 69.1708 72.8353 69.177 72.819 69.1895L72.8017 69.2037L72.7493 69.1902ZM73.2688 69.2564H73.0963V69.203H73.2688V69.2564ZM73.6023 69.2755H73.6738V69.3289H73.6023V69.4484H73.5366V69.3289H73.3021V69.2903L73.5327 68.9335H73.6023V69.2755ZM73.3764 69.2755H73.5366V69.023L73.5288 69.0371L73.3764 69.2755ZM74.009 69.2755H74.0805V69.3289H74.009V69.4484H73.9432V69.3289H73.7088V69.2903L73.9394 68.9335H74.009V69.2755ZM73.783 69.2755H73.9432V69.023L73.9355 69.0371L73.783 69.2755Z" fill="#8794BA"/>
<path opacity="0.1" d="M88.0908 42.2231L107.851 44.3312L123.335 34.5578L138.818 24.3225V72.2983H1.61792L1.94459 45.7601L11.8535 46.4254L26.7713 52.561L39.5113 48.9388L64.2291 43.0989L88.0908 42.2231Z" fill="#EF2A82"/>
<path opacity="0.1" d="M88.541 31.9483L108.238 36.2425L124.126 21.7313L138.818 15.7343V24.3225L123.343 34.3175L108.305 44.1644L88.541 42.2394L64.7085 43.0538L26.7289 52.6046L11.9289 46.5336L2.02588 45.7192V33.7252L11.2759 37.279L23.0289 36.3165L39.1349 31.1339L59.2673 33.7252L88.541 31.9483Z" fill="#51ABE8"/>
<path d="M138.818 24.1745L123.795 33.9261L108.264 44.1745L88.4417 42.2998L64.4909 43.0289L39.5702 49.0416L26.7289 52.6046L11.9289 46.4435L2.02588 45.7754" stroke="#EF2A82" stroke-width="0.24142"/>
<path d="M138.819 15.8824L124.125 21.7111L108.325 36.2082L88.5414 31.8604L59.2532 33.6635L39.0079 31.0812L23.1164 36.2082L11.2523 37.205L2.43579 33.6635" stroke="#0088F0" stroke-width="0.24142"/>
<path opacity="0.1" d="M88.581 17.1168L108.262 19.4046L124.138 11.6735L138.818 8.47855V15.8632L124.138 21.6971L108.262 36.171L88.581 31.9617L59.3306 33.734L39.2142 31.0756L23.1377 36.171L11.3774 37.2048L2.02588 33.734L2.1347 24.4534V18.0635L11.3774 19.9568L23.121 19.444L39.2142 16.6829L59.3306 18.0635L88.581 17.1168Z" fill="#4FB535"/>
<path d="M138.614 8.47855L124.061 11.5901L108.296 19.4854L88.5554 17.1176L59.3314 18.0996L39.1306 16.6932L23.274 19.4854L11.4358 20.0283L2.63867 18.0996" stroke="#4FB535" stroke-width="0.24142"/>
<path d="M2.17879 74.0453H2.34968V74.9582C2.34968 75.0815 2.31249 75.178 2.23811 75.2477C2.16433 75.3173 2.06575 75.3522 1.94238 75.3522C1.81429 75.3522 1.71453 75.3194 1.64311 75.2539C1.57168 75.1884 1.53597 75.0966 1.53597 74.9785H1.70597C1.70597 75.0523 1.72604 75.1099 1.76618 75.1512C1.80691 75.1925 1.86565 75.2132 1.94238 75.2132C2.01263 75.2132 2.06929 75.191 2.11238 75.1467C2.15606 75.1025 2.1782 75.0405 2.17879 74.9608V74.0453ZM3.205 75.3345C3.19555 75.3156 3.18788 75.2819 3.18198 75.2335C3.10583 75.3126 3.01493 75.3522 2.90927 75.3522C2.81482 75.3522 2.7372 75.3256 2.6764 75.2725C2.61619 75.2188 2.58609 75.1509 2.58609 75.0688C2.58609 74.9691 2.62386 74.8917 2.69942 74.8368C2.77557 74.7814 2.88241 74.7536 3.01994 74.7536H3.17932V74.6784C3.17932 74.6211 3.1622 74.5756 3.12797 74.542C3.09373 74.5078 3.04326 74.4906 2.97656 74.4906C2.91812 74.4906 2.86913 74.5054 2.82958 74.5349C2.79003 74.5644 2.77025 74.6001 2.77025 74.6421H2.60557C2.60557 74.5942 2.62239 74.5482 2.65603 74.5039C2.69027 74.4591 2.73631 74.4236 2.79416 74.3977C2.8526 74.3717 2.91665 74.3587 2.9863 74.3587C3.09668 74.3587 3.18316 74.3865 3.24573 74.4419C3.3083 74.4968 3.34076 74.5727 3.34313 74.6695V75.1104C3.34313 75.1984 3.35434 75.2683 3.37677 75.3203V75.3345H3.205ZM2.93317 75.2096C2.98453 75.2096 3.03323 75.1963 3.07927 75.1698C3.12531 75.1432 3.15866 75.1087 3.17932 75.0662V74.8696H3.05093C2.85024 74.8696 2.74989 74.9283 2.74989 75.0458C2.74989 75.0972 2.76701 75.1373 2.80124 75.1662C2.83548 75.1952 2.87946 75.2096 2.93317 75.2096ZM3.75485 74.3764L3.76016 74.4968C3.83336 74.4048 3.92898 74.3587 4.04704 74.3587C4.24951 74.3587 4.35162 74.4729 4.3534 74.7014V75.3345H4.18959V74.7005C4.189 74.6314 4.17306 74.5804 4.14178 74.5473C4.11108 74.5143 4.06298 74.4977 3.99745 74.4977C3.94433 74.4977 3.8977 74.5119 3.85756 74.5402C3.81742 74.5686 3.78613 74.6058 3.7637 74.6518V75.3345H3.5999V74.3764H3.75485Z" fill="black"/>
<path d="M39.2725 74.998H38.7324L38.6111 75.3345H38.4358L38.9281 74.0453H39.0768L39.57 75.3345H39.3956L39.2725 74.998ZM38.7838 74.8581H39.222L39.0025 74.2551L38.7838 74.8581ZM40.5272 74.8661C40.5272 75.0119 40.4938 75.1293 40.4271 75.2185C40.3604 75.3076 40.2701 75.3522 40.1562 75.3522C40.0399 75.3522 39.9484 75.3153 39.8817 75.2415V75.7028H39.7179V74.3764H39.8675L39.8755 74.4827C39.9422 74.4 40.0349 74.3587 40.1535 74.3587C40.2686 74.3587 40.3595 74.4021 40.4262 74.4889C40.4935 74.5756 40.5272 74.6964 40.5272 74.851V74.8661ZM40.3634 74.8475C40.3634 74.7395 40.3403 74.6542 40.2943 74.5916C40.2483 74.529 40.1851 74.4977 40.1048 74.4977C40.0056 74.4977 39.9313 74.5417 39.8817 74.6297V75.0874C39.9307 75.1748 40.0056 75.2185 40.1066 75.2185C40.1851 75.2185 40.2474 75.1875 40.2934 75.1255C40.34 75.0629 40.3634 74.9703 40.3634 74.8475ZM41.1992 74.5234C41.1744 74.5193 41.1476 74.5172 41.1186 74.5172C41.0112 74.5172 40.9383 74.563 40.8999 74.6545V75.3345H40.7361V74.3764H40.8955L40.8982 74.4871C40.9519 74.4015 41.028 74.3587 41.1266 74.3587C41.1585 74.3587 41.1827 74.3629 41.1992 74.3711V74.5234Z" fill="black"/>
<path d="M76.0187 74.0453H76.1896V74.9582C76.1896 75.0815 76.1524 75.178 76.078 75.2477C76.0042 75.3174 75.9057 75.3522 75.7823 75.3522C75.6542 75.3522 75.5544 75.3194 75.483 75.2539C75.4116 75.1884 75.3759 75.0966 75.3759 74.9785H75.5459C75.5459 75.0523 75.5659 75.1099 75.6061 75.1512C75.6468 75.1925 75.7055 75.2132 75.7823 75.2132C75.8525 75.2132 75.9092 75.191 75.9523 75.1468C75.996 75.1025 76.0181 75.0405 76.0187 74.9608V74.0453ZM77.0449 75.2397C76.9812 75.3147 76.8876 75.3522 76.7642 75.3522C76.6621 75.3522 76.5842 75.3227 76.5305 75.2636C76.4773 75.204 76.4505 75.1161 76.4499 74.9998V74.3764H76.6137V74.9954C76.6137 75.1406 76.6727 75.2132 76.7908 75.2132C76.9159 75.2132 76.9992 75.1665 77.0405 75.0733V74.3764H77.2043V75.3345H77.0484L77.0449 75.2397ZM77.6319 75.3345H77.4681V73.9745H77.6319V75.3345Z" fill="black"/>
<path d="M14.6257 74.7651H14.0847V75.3345H13.9147V74.0453H14.7133V74.1852H14.0847V74.6261H14.6257V74.7651ZM15.2694 75.3522C15.1395 75.3522 15.0339 75.3097 14.9524 75.2247C14.871 75.1391 14.8302 75.0249 14.8302 74.882V74.8519C14.8302 74.7569 14.8482 74.6722 14.8842 74.5978C14.9208 74.5228 14.9716 74.4644 15.0365 74.4225C15.102 74.38 15.1729 74.3587 15.249 74.3587C15.3736 74.3587 15.4704 74.3997 15.5394 74.4818C15.6085 74.5638 15.643 74.6813 15.643 74.8342V74.9024H14.994C14.9964 74.9968 15.0238 75.0733 15.0764 75.1317C15.1295 75.1895 15.1968 75.2185 15.2782 75.2185C15.3361 75.2185 15.3851 75.2067 15.4252 75.183C15.4654 75.1594 15.5005 75.1282 15.5306 75.0892L15.6306 75.1671C15.5504 75.2905 15.43 75.3522 15.2694 75.3522ZM15.249 74.4933C15.1829 74.4933 15.1274 74.5175 15.0826 74.5659C15.0377 74.6137 15.01 74.681 14.9993 74.7678H15.4792V74.7554C15.4745 74.6722 15.4521 74.6078 15.4119 74.5624C15.3718 74.5163 15.3175 74.4933 15.249 74.4933ZM16.6445 74.8661C16.6445 75.0125 16.6108 75.1302 16.5435 75.2194C16.4762 75.3079 16.3859 75.3522 16.2726 75.3522C16.1516 75.3522 16.058 75.3094 15.9919 75.2238L15.9839 75.3345H15.8334V73.9744H15.9972V74.4818C16.0633 74.3997 16.1545 74.3587 16.2708 74.3587C16.3871 74.3587 16.4783 74.4027 16.5444 74.4906C16.6111 74.5786 16.6445 74.699 16.6445 74.8519V74.8661ZM16.4807 74.8475C16.4807 74.7359 16.4591 74.6497 16.416 74.5889C16.3729 74.5281 16.311 74.4977 16.2301 74.4977C16.1221 74.4977 16.0444 74.5479 15.9972 74.6483V75.0626C16.0474 75.163 16.1256 75.2132 16.2319 75.2132C16.3104 75.2132 16.3715 75.1828 16.4151 75.122C16.4588 75.0612 16.4807 74.9697 16.4807 74.8475Z" fill="black"/>
<path d="M51.0447 74.0453L51.4662 75.0972L51.8877 74.0453H52.1081V75.3345H51.9381V74.8324L51.9541 74.2905L51.5308 75.3345H51.4007L50.9783 74.2932L50.9951 74.8324V75.3345H50.8251V74.0453H51.0447ZM52.9741 75.3345C52.9646 75.3156 52.9569 75.2819 52.951 75.2335C52.8749 75.3126 52.784 75.3522 52.6783 75.3522C52.5839 75.3522 52.5063 75.3256 52.4455 75.2725C52.3853 75.2188 52.3552 75.1509 52.3552 75.0688C52.3552 74.9691 52.3929 74.8917 52.4685 74.8368C52.5446 74.7814 52.6515 74.7536 52.789 74.7536H52.9484V74.6784C52.9484 74.6211 52.9313 74.5756 52.897 74.542C52.8628 74.5078 52.8123 74.4906 52.7456 74.4906C52.6872 74.4906 52.6382 74.5054 52.5986 74.5349C52.5591 74.5644 52.5393 74.6001 52.5393 74.6421H52.3746C52.3746 74.5942 52.3915 74.5482 52.4251 74.5039C52.4593 74.4591 52.5054 74.4236 52.5632 74.3977C52.6217 74.3717 52.6857 74.3587 52.7554 74.3587C52.8657 74.3587 52.9522 74.3865 53.0148 74.4419C53.0774 74.4968 53.1098 74.5727 53.1122 74.6695V75.1104C53.1122 75.1984 53.1234 75.2683 53.1458 75.3203V75.3345H52.9741ZM52.7022 75.2096C52.7536 75.2096 52.8023 75.1963 52.8483 75.1698C52.8944 75.1432 52.9277 75.1087 52.9484 75.0662V74.8696H52.82C52.6193 74.8696 52.519 74.9283 52.519 75.0458C52.519 75.0972 52.5361 75.1373 52.5703 75.1662C52.6045 75.1952 52.6485 75.2096 52.7022 75.2096ZM53.6682 75.0945L53.8914 74.3764H54.0667L53.6815 75.4823C53.6219 75.6417 53.5272 75.7214 53.3973 75.7214L53.3663 75.7187L53.3052 75.7072V75.5744L53.3495 75.5779C53.405 75.5779 53.4481 75.5667 53.4788 75.5443C53.51 75.5219 53.5357 75.4808 53.5558 75.4212L53.5921 75.3238L53.2503 74.3764H53.4292L53.6682 75.0945Z" fill="black"/>
<path d="M88.1004 74.998H87.5603L87.439 75.3345H87.2637L87.756 74.0453H87.9047L88.3979 75.3345H88.2235L88.1004 74.998ZM87.6117 74.8581H88.0499L87.8304 74.2551L87.6117 74.8581ZM89.1266 75.2397C89.0629 75.3147 88.9693 75.3522 88.8459 75.3522C88.7438 75.3522 88.6659 75.3227 88.6122 75.2636C88.5591 75.204 88.5322 75.1161 88.5316 74.9998V74.3764H88.6954V74.9954C88.6954 75.1406 88.7544 75.2132 88.8725 75.2132C88.9976 75.2132 89.0809 75.1665 89.1222 75.0733V74.3764H89.286V75.3345H89.1302L89.1266 75.2397ZM89.4967 74.8475C89.4967 74.6981 89.5313 74.5795 89.6003 74.4915C89.6694 74.403 89.7609 74.3587 89.8748 74.3587C89.9917 74.3587 90.0829 74.4001 90.1484 74.4827L90.1564 74.3764H90.306V75.3115C90.306 75.4354 90.2691 75.5331 90.1953 75.6045C90.1221 75.676 90.0236 75.7117 89.8996 75.7117C89.8305 75.7117 89.7629 75.6969 89.6968 75.6674C89.6307 75.6379 89.5803 75.5974 89.5454 75.5461L89.6304 75.4478C89.7007 75.5346 89.7866 75.578 89.8881 75.578C89.9678 75.578 90.0298 75.5555 90.074 75.5107C90.1189 75.4658 90.1413 75.4027 90.1413 75.3212V75.2388C90.0758 75.3144 89.9864 75.3522 89.873 75.3522C89.7609 75.3522 89.67 75.307 89.6003 75.2167C89.5313 75.1264 89.4967 75.0033 89.4967 74.8475ZM89.6614 74.8661C89.6614 74.9741 89.6836 75.0591 89.7278 75.1211C89.7721 75.1825 89.8341 75.2132 89.9138 75.2132C90.0171 75.2132 90.0929 75.1662 90.1413 75.0724V74.635C90.0911 74.5435 90.0159 74.4977 89.9155 74.4977C89.8358 74.4977 89.7736 74.5287 89.7287 74.5907C89.6839 74.6527 89.6614 74.7445 89.6614 74.8661Z" fill="black"/>
<path d="M26.5696 74.0453L26.9911 75.0972L27.4125 74.0453H27.633V75.3345H27.463V74.8324L27.4789 74.2905L27.0557 75.3345H26.9256L26.5032 74.2932L26.52 74.8324V75.3345H26.35V74.0453H26.5696ZM28.499 75.3345C28.4895 75.3156 28.4818 75.2819 28.4759 75.2335C28.3998 75.3126 28.3089 75.3522 28.2032 75.3522C28.1088 75.3522 28.0312 75.3256 27.9704 75.2725C27.9101 75.2188 27.88 75.1509 27.88 75.0688C27.88 74.9691 27.9178 74.8917 27.9934 74.8368C28.0695 74.7814 28.1764 74.7536 28.3139 74.7536H28.4733V74.6784C28.4733 74.6211 28.4562 74.5756 28.4219 74.542C28.3877 74.5078 28.3372 74.4906 28.2705 74.4906C28.2121 74.4906 28.1631 74.5054 28.1235 74.5349C28.084 74.5644 28.0642 74.6001 28.0642 74.6421H27.8995C27.8995 74.5942 27.9163 74.5482 27.95 74.5039C27.9842 74.4591 28.0303 74.4236 28.0881 74.3977C28.1466 74.3717 28.2106 74.3587 28.2803 74.3587C28.3906 74.3587 28.4771 74.3865 28.5397 74.4419C28.6023 74.4968 28.6347 74.5727 28.6371 74.6695V75.1104C28.6371 75.1984 28.6483 75.2683 28.6707 75.3203V75.3345H28.499ZM28.2271 75.2096C28.2785 75.2096 28.3272 75.1963 28.3732 75.1698C28.4193 75.1432 28.4526 75.1087 28.4733 75.0662V74.8696H28.3449C28.1442 74.8696 28.0438 74.9283 28.0438 75.0458C28.0438 75.0972 28.061 75.1373 28.0952 75.1662C28.1294 75.1952 28.1734 75.2096 28.2271 75.2096ZM29.3569 74.5234C29.3321 74.5193 29.3053 74.5172 29.2764 74.5172C29.1689 74.5172 29.096 74.563 29.0577 74.6545V75.3345H28.8939V74.3764H29.0532L29.0559 74.4871C29.1096 74.4015 29.1858 74.3587 29.2843 74.3587C29.3162 74.3587 29.3404 74.3629 29.3569 74.3711V74.5234Z" fill="black"/>
<path d="M64.0274 74.0453H64.1983V74.9582C64.1983 75.0815 64.1611 75.178 64.0867 75.2477C64.013 75.3173 63.9144 75.3522 63.791 75.3522C63.6629 75.3522 63.5632 75.3194 63.4917 75.2539C63.4203 75.1884 63.3846 75.0966 63.3846 74.9785H63.5546C63.5546 75.0523 63.5747 75.1099 63.6148 75.1512C63.6555 75.1925 63.7143 75.2132 63.791 75.2132C63.8613 75.2132 63.9179 75.191 63.961 75.1467C64.0047 75.1025 64.0268 75.0405 64.0274 74.9608V74.0453ZM65.0536 75.2397C64.9899 75.3147 64.8963 75.3522 64.7729 75.3522C64.6708 75.3522 64.5929 75.3227 64.5392 75.2636C64.4861 75.204 64.4592 75.1161 64.4586 74.9998V74.3764H64.6224V74.9953C64.6224 75.1405 64.6815 75.2132 64.7995 75.2132C64.9246 75.2132 65.0079 75.1665 65.0492 75.0733V74.3764H65.213V75.3345H65.0572L65.0536 75.2397ZM65.6176 74.3764L65.623 74.4968C65.6961 74.4048 65.7918 74.3587 65.9098 74.3587C66.1123 74.3587 66.2144 74.4729 66.2162 74.7014V75.3345H66.0524V74.7005C66.0518 74.6314 66.0359 74.5804 66.0046 74.5473C65.9739 74.5143 65.9258 74.4977 65.8602 74.4977C65.8071 74.4977 65.7605 74.5119 65.7204 74.5402C65.6802 74.5686 65.6489 74.6058 65.6265 74.6518V75.3345H65.4627V74.3764H65.6176Z" fill="black"/>
<path d="M100.36 74.7598C100.214 74.7179 100.108 74.6666 100.041 74.6058C99.9751 74.5444 99.942 74.4688 99.942 74.3791C99.942 74.2776 99.9824 74.1937 100.063 74.1276C100.145 74.0609 100.25 74.0276 100.38 74.0276C100.469 74.0276 100.548 74.0447 100.617 74.0789C100.686 74.1132 100.74 74.1604 100.778 74.2206C100.816 74.2808 100.835 74.3466 100.835 74.4181H100.665C100.665 74.3401 100.64 74.279 100.59 74.2348C100.541 74.1899 100.471 74.1675 100.38 74.1675C100.296 74.1675 100.231 74.1861 100.184 74.2233C100.137 74.2599 100.114 74.3109 100.114 74.3764C100.114 74.429 100.136 74.4735 100.18 74.5101C100.225 74.5461 100.301 74.5792 100.408 74.6093C100.515 74.6394 100.599 74.6728 100.659 74.7094C100.72 74.7454 100.765 74.7876 100.794 74.836C100.823 74.8844 100.838 74.9413 100.838 75.0069C100.838 75.1113 100.797 75.1952 100.716 75.2583C100.634 75.3209 100.526 75.3522 100.389 75.3522C100.301 75.3522 100.218 75.3354 100.141 75.3017C100.064 75.2675 100.005 75.2208 99.9633 75.1618C99.9219 75.1028 99.9013 75.0358 99.9013 74.9608H100.072C100.072 75.0387 100.101 75.1004 100.158 75.1459C100.216 75.1907 100.293 75.2132 100.389 75.2132C100.479 75.2132 100.548 75.1949 100.595 75.1583C100.643 75.1217 100.667 75.0718 100.667 75.0086C100.667 74.9455 100.645 74.8968 100.601 74.8625C100.556 74.8277 100.476 74.7935 100.36 74.7598ZM101.429 75.3522C101.299 75.3522 101.193 75.3097 101.112 75.2247C101.03 75.1391 100.989 75.0249 100.989 74.882V74.8519C100.989 74.7569 101.007 74.6722 101.043 74.5978C101.08 74.5228 101.131 74.4644 101.196 74.4225C101.261 74.38 101.332 74.3587 101.408 74.3587C101.533 74.3587 101.63 74.3998 101.699 74.4818C101.768 74.5639 101.802 74.6813 101.802 74.8342V74.9024H101.153C101.156 74.9968 101.183 75.0733 101.236 75.1317C101.289 75.1896 101.356 75.2185 101.437 75.2185C101.495 75.2185 101.544 75.2067 101.584 75.1831C101.625 75.1595 101.66 75.1282 101.69 75.0892L101.79 75.1671C101.71 75.2905 101.589 75.3522 101.429 75.3522ZM101.408 74.4933C101.342 74.4933 101.287 74.5175 101.242 74.5659C101.197 74.6137 101.169 74.681 101.159 74.7678H101.638V74.7554C101.634 74.6722 101.611 74.6078 101.571 74.5624C101.531 74.5163 101.477 74.4933 101.408 74.4933ZM102.802 74.8661C102.802 75.0119 102.769 75.1293 102.702 75.2185C102.635 75.3076 102.545 75.3522 102.431 75.3522C102.315 75.3522 102.223 75.3153 102.156 75.2415V75.7028H101.993V74.3764H102.142L102.15 74.4827C102.217 74.4001 102.31 74.3587 102.428 74.3587C102.543 74.3587 102.634 74.4021 102.701 74.4889C102.768 74.5757 102.802 74.6964 102.802 74.851V74.8661ZM102.638 74.8475C102.638 74.7395 102.615 74.6542 102.569 74.5916C102.523 74.529 102.46 74.4977 102.38 74.4977C102.28 74.4977 102.206 74.5417 102.156 74.6297V75.0874C102.205 75.1748 102.28 75.2185 102.381 75.2185C102.46 75.2185 102.522 75.1875 102.568 75.1255C102.615 75.0629 102.638 74.9703 102.638 74.8475Z" fill="black"/>
<path d="M113.08 74.7315C113.08 74.8578 113.059 74.9682 113.016 75.0626C112.974 75.1565 112.914 75.2282 112.836 75.2778C112.758 75.3274 112.667 75.3522 112.563 75.3522C112.461 75.3522 112.371 75.3274 112.293 75.2778C112.214 75.2276 112.153 75.1565 112.11 75.0644C112.067 74.9717 112.044 74.8646 112.043 74.743V74.65C112.043 74.5261 112.065 74.4166 112.108 74.3215C112.151 74.2265 112.212 74.1539 112.29 74.1037C112.369 74.053 112.46 74.0276 112.561 74.0276C112.665 74.0276 112.755 74.0527 112.834 74.1028C112.913 74.1524 112.974 74.2247 113.016 74.3198C113.059 74.4142 113.08 74.5243 113.08 74.65V74.7315ZM112.911 74.6483C112.911 74.4954 112.88 74.3782 112.819 74.2968C112.758 74.2147 112.672 74.1737 112.561 74.1737C112.454 74.1737 112.369 74.2147 112.307 74.2968C112.246 74.3782 112.214 74.4915 112.212 74.6368V74.7315C112.212 74.8797 112.243 74.9962 112.305 75.0812C112.368 75.1657 112.454 75.2079 112.563 75.2079C112.673 75.2079 112.758 75.168 112.818 75.0883C112.878 75.008 112.909 74.8932 112.911 74.7439V74.6483ZM113.694 75.2185C113.752 75.2185 113.803 75.2008 113.847 75.1654C113.891 75.1299 113.915 75.0857 113.919 75.0325H114.074C114.071 75.0874 114.053 75.1397 114.018 75.1893C113.983 75.2388 113.936 75.2784 113.878 75.3079C113.82 75.3374 113.759 75.3522 113.694 75.3522C113.563 75.3522 113.459 75.3088 113.382 75.222C113.305 75.1347 113.267 75.0154 113.267 74.8643V74.8369C113.267 74.7436 113.284 74.6607 113.318 74.5881C113.353 74.5155 113.402 74.4591 113.465 74.4189C113.53 74.3788 113.605 74.3587 113.693 74.3587C113.8 74.3587 113.889 74.3909 113.96 74.4552C114.032 74.5196 114.07 74.6031 114.074 74.7058H113.919C113.915 74.6438 113.891 74.5931 113.849 74.5535C113.807 74.5134 113.755 74.4933 113.693 74.4933C113.61 74.4933 113.545 74.5234 113.499 74.5836C113.453 74.6433 113.431 74.7297 113.431 74.8431V74.8741C113.431 74.9844 113.453 75.0694 113.499 75.1291C113.544 75.1887 113.609 75.2185 113.694 75.2185ZM114.481 74.1445V74.3764H114.66V74.5031H114.481V75.0972C114.481 75.1355 114.489 75.1645 114.505 75.184C114.521 75.2028 114.548 75.2123 114.586 75.2123C114.605 75.2123 114.631 75.2087 114.664 75.2017V75.3345C114.621 75.3463 114.579 75.3522 114.538 75.3522C114.465 75.3522 114.41 75.33 114.373 75.2858C114.336 75.2415 114.317 75.1786 114.317 75.0972V74.5031H114.143V74.3764H114.317V74.1445H114.481Z" fill="black"/>
<path d="M125.336 75.3345H125.165L124.516 74.341V75.3345H124.345V74.0453H124.516L125.167 75.0432V74.0453H125.336V75.3345ZM125.568 74.8466C125.568 74.7527 125.587 74.6683 125.623 74.5934C125.661 74.5184 125.712 74.4606 125.777 74.4198C125.844 74.3791 125.919 74.3587 126.003 74.3587C126.134 74.3587 126.239 74.4039 126.319 74.4942C126.4 74.5845 126.441 74.7046 126.441 74.8546V74.8661C126.441 74.9593 126.423 75.0432 126.387 75.1175C126.351 75.1913 126.3 75.2489 126.233 75.2902C126.167 75.3315 126.091 75.3522 126.005 75.3522C125.875 75.3522 125.77 75.307 125.689 75.2167C125.609 75.1264 125.568 75.0069 125.568 74.8581V74.8466ZM125.733 74.8661C125.733 74.9723 125.758 75.0576 125.807 75.122C125.856 75.1863 125.922 75.2185 126.005 75.2185C126.088 75.2185 126.154 75.186 126.203 75.1211C126.252 75.0556 126.277 74.9641 126.277 74.8466C126.277 74.7415 126.252 74.6565 126.202 74.5916C126.152 74.5261 126.086 74.4933 126.003 74.4933C125.922 74.4933 125.857 74.5255 125.808 74.5898C125.758 74.6542 125.733 74.7463 125.733 74.8661ZM126.948 75.1122L127.185 74.3764H127.353L127.009 75.3345H126.884L126.537 74.3764H126.704L126.948 75.1122Z" fill="black"/>
<path d="M136.886 75.3345V74.0453H137.25C137.362 74.0453 137.461 74.0701 137.548 74.1197C137.634 74.1692 137.7 74.2398 137.747 74.3313C137.794 74.4228 137.818 74.5278 137.819 74.6465V74.7288C137.819 74.8504 137.795 74.957 137.748 75.0485C137.701 75.14 137.634 75.2102 137.547 75.2592C137.46 75.3082 137.359 75.3333 137.243 75.3345H136.886ZM137.056 74.1852V75.1954H137.235C137.366 75.1954 137.468 75.1547 137.541 75.0733C137.614 74.9918 137.65 74.8758 137.65 74.7253V74.65C137.65 74.5036 137.616 74.39 137.547 74.3091C137.478 74.2277 137.381 74.1864 137.255 74.1852H137.056ZM138.448 75.3522C138.318 75.3522 138.213 75.3097 138.131 75.2247C138.05 75.1391 138.009 75.0249 138.009 74.882V74.8519C138.009 74.7569 138.027 74.6722 138.063 74.5978C138.1 74.5228 138.15 74.4644 138.215 74.4225C138.281 74.38 138.352 74.3587 138.428 74.3587C138.552 74.3587 138.649 74.3997 138.718 74.4818C138.787 74.5638 138.822 74.6813 138.822 74.8342V74.9024H138.173C138.175 74.9968 138.203 75.0733 138.255 75.1317C138.308 75.1895 138.376 75.2185 138.457 75.2185C138.515 75.2185 138.564 75.2067 138.604 75.183C138.644 75.1594 138.679 75.1282 138.709 75.0892L138.809 75.1671C138.729 75.2905 138.609 75.3522 138.448 75.3522ZM138.428 74.4933C138.362 74.4933 138.306 74.5175 138.261 74.5659C138.216 74.6137 138.189 74.681 138.178 74.7678H138.658V74.7554C138.653 74.6722 138.631 74.6078 138.591 74.5624C138.551 74.5163 138.496 74.4933 138.428 74.4933ZM139.396 75.2185C139.455 75.2185 139.506 75.2008 139.55 75.1653C139.593 75.1299 139.617 75.0857 139.622 75.0325H139.777C139.774 75.0874 139.755 75.1397 139.72 75.1892C139.686 75.2388 139.639 75.2784 139.581 75.3079C139.523 75.3374 139.461 75.3522 139.396 75.3522C139.266 75.3522 139.162 75.3088 139.085 75.222C139.008 75.1346 138.97 75.0154 138.97 74.8643V74.8368C138.97 74.7436 138.987 74.6606 139.021 74.588C139.055 74.5154 139.104 74.4591 139.168 74.4189C139.232 74.3788 139.308 74.3587 139.396 74.3587C139.503 74.3587 139.592 74.3909 139.663 74.4552C139.734 74.5196 139.772 74.6031 139.777 74.7058H139.622C139.617 74.6438 139.594 74.5931 139.551 74.5535C139.509 74.5134 139.458 74.4933 139.396 74.4933C139.312 74.4933 139.248 74.5234 139.202 74.5836C139.156 74.6432 139.133 74.7297 139.133 74.843V74.874C139.133 74.9844 139.156 75.0694 139.202 75.129C139.247 75.1887 139.312 75.2185 139.396 75.2185Z" fill="black"/>
</svg>
