<svg width="14" height="16" viewBox="0 0 14 16" fill="none" xmlns="http://www.w3.org/2000/svg">
<path d="M7.01989 4.23317L11.1341 8.34893L11.1342 8.34899C11.3655 8.5803 11.6792 8.71024 12.0063 8.71024C12.3334 8.71024 12.6471 8.5803 12.8785 8.34899C13.1098 8.11768 13.2397 7.80395 13.2397 7.47683C13.2397 7.14971 13.1098 6.83599 12.8785 6.60468L7.89241 1.61863C7.77793 1.50386 7.64193 1.41281 7.49222 1.35068C7.3425 1.28855 7.18199 1.25657 7.01989 1.25657C6.85779 1.25657 6.69729 1.28855 6.54757 1.35068C6.39785 1.41281 6.26186 1.50386 6.14738 1.61863L1.16169 6.60432C1.16161 6.6044 1.16153 6.60448 1.16144 6.60456L1.16133 6.60468L7.01989 4.23317ZM7.01989 4.23317L2.90599 8.34863C2.90592 8.34871 2.90584 8.34878 2.90576 8.34886C2.90574 8.34889 2.90571 8.34891 2.90569 8.34893C2.79128 8.46356 2.65539 8.5545 2.50581 8.61657C2.35609 8.6787 2.19558 8.71068 2.03348 8.71068C1.87138 8.71068 1.71088 8.6787 1.56116 8.61657C1.41159 8.55451 1.27573 8.46358 1.16133 8.34899L7.01989 4.23317Z" fill="#C94343" stroke="#C94343" stroke-width="0.802586"/>
<path d="M7.889 2.4501L7.60525 2.73385L7.889 2.45009C7.65789 2.21898 7.34443 2.08915 7.01759 2.08915C6.69075 2.08915 6.37729 2.21898 6.14618 2.45009L6.42734 2.73125L6.14618 2.4501C5.91507 2.68121 5.78523 2.99466 5.78523 3.32151L5.78523 14.1254C5.78523 14.4522 5.91507 14.7657 6.14618 14.9968C6.37729 15.2279 6.69075 15.3578 7.01759 15.3578C7.34443 15.3578 7.65789 15.2279 7.889 14.9968C8.12012 14.7657 8.24995 14.4522 8.24995 14.1254L8.24995 3.32151C8.24995 2.99466 8.12012 2.68121 7.889 2.4501Z" fill="#C94343" stroke="#C94343" stroke-width="0.802586"/>
</svg>
