<svg width="87" height="66" viewBox="0 0 87 66" fill="none" xmlns="http://www.w3.org/2000/svg">
<path opacity="0.3" fill-rule="evenodd" clip-rule="evenodd" d="M49.2257 6.40716L45.2615 8.79291C45.077 8.90873 44.8423 8.90873 44.6575 8.79394L40.4913 6.32413C40.1381 6.10479 40.1367 5.59471 40.4883 5.37195L43.5201 3.52429C43.8682 3.30393 43.8699 2.79828 43.5225 2.57621L40.3383 0.602484C40.1562 0.486323 39.9239 0.482906 39.7387 0.593601L25.5194 9.09493C25.1586 9.31086 25.1518 9.82743 25.5068 10.0526L28.9906 12.2576C29.1772 12.3748 29.4146 12.3748 29.6005 12.2576L33.8486 9.57085C34.0348 9.45333 34.2722 9.45333 34.4588 9.57188L38.5596 12.0475C38.9091 12.2699 38.9074 12.7779 38.5566 12.998L35.4062 14.9748C35.0457 15.2003 35.0556 15.7247 35.4233 15.9375L39.7325 18.5437C39.9146 18.6492 40.1398 18.6455 40.3185 18.5351L54.0184 10.0369C54.372 9.81718 54.3741 9.30676 54.0232 9.084L49.8332 6.40818C49.6476 6.29134 49.4112 6.29065 49.2257 6.40716Z" fill="#4997CC"/>
<path d="M22 15.2091V31.137C22 31.5332 22.208 31.9015 22.5476 32.1018L37.0877 40.8452C37.8295 41.2804 38.7409 40.7362 38.7409 39.8826V22.3141C38.7409 21.928 38.5442 21.5686 38.2184 21.3648L24.7263 13.3961C24.4826 13.2521 24.1684 13.333 24.0244 13.5767C23.8805 13.8204 23.9614 14.1347 24.2051 14.2786L37.686 22.2405C37.6995 22.2491 37.716 22.2793 37.716 22.3141V39.8826C37.716 39.9542 37.6557 39.9902 37.611 39.964L23.0721 31.2212C23.0428 31.2039 23.025 31.1723 23.025 31.137V15.2091C23.025 14.926 22.7955 14.6966 22.5125 14.6966C22.2294 14.6966 22 14.926 22 15.2091Z" fill="#4997CC"/>
<path d="M42.1587 24.1652V39.8695C42.1587 40.7327 43.0758 41.2864 43.8188 40.8442L58.6942 31.9045C59.0328 31.7044 59.2413 31.3316 59.2413 30.9312V12.7455C59.2413 11.8695 58.2982 11.3174 57.5562 11.7861L42.6867 20.9603C42.4458 21.1089 42.371 21.4247 42.5196 21.6655C42.6682 21.9064 42.984 21.9812 43.2249 21.8326L58.099 12.6555C58.1501 12.6233 58.2163 12.662 58.2163 12.7455V30.9312C58.2163 30.9725 58.1964 31.0081 58.1695 31.024L43.2927 39.9646C43.248 39.9912 43.1836 39.9523 43.1836 39.8695V24.1652C43.1836 23.8821 42.9542 23.6527 42.6712 23.6527C42.3881 23.6527 42.1587 23.8821 42.1587 24.1652Z" fill="#4997CC"/>
<path d="M44.9982 8.3538C44.9718 8.37029 44.9477 8.37032 44.9288 8.35857L40.7537 5.88328C40.731 5.86906 40.7308 5.82554 40.7635 5.80482L43.7878 3.96189C44.4603 3.53626 44.4631 2.5685 43.7995 2.14437L40.6093 0.166876C40.2693 -0.0500582 39.8285 -0.0565749 39.4767 0.153704L25.2574 8.65505C24.5691 9.067 24.556 10.0558 25.2333 10.4853L28.7175 12.6906C29.0723 12.9135 29.522 12.9135 29.8748 12.6911L34.1235 10.004C34.142 9.99228 34.1659 9.9923 34.1849 10.0044L38.2958 12.4862C38.3173 12.5001 38.3171 12.5438 38.2853 12.5638L35.1348 14.5406C34.4474 14.9706 34.4657 15.9747 35.1674 16.381L39.4683 18.9822C39.8219 19.1872 40.2493 19.1808 40.5887 18.9711L54.2895 10.4723C54.9642 10.0532 54.9688 9.07662 54.2989 8.65132L50.11 5.97624C49.7567 5.75374 49.3106 5.75183 48.9589 5.97015L44.9982 8.3538ZM49.4992 6.84113C49.5175 6.82964 49.5418 6.82969 49.561 6.84179L53.7484 9.51589C53.7817 9.53706 53.7815 9.58133 53.749 9.60153L40.0493 18.0996C40.0317 18.1105 40.0088 18.1108 39.9905 18.1003L35.6894 15.499C35.6472 15.4744 35.6464 15.4296 35.6789 15.4092L38.8299 13.432C39.4997 13.012 39.5029 12.0397 38.8357 11.6151L34.7246 9.13312C34.381 8.91459 33.93 8.91404 33.576 9.13746L29.3275 11.8245C29.3091 11.836 29.284 11.836 29.2642 11.8236L25.7818 9.61953C25.7495 9.59905 25.7501 9.55467 25.7836 9.53465L40.0026 1.03344C40.0212 1.02232 40.0451 1.02268 40.0637 1.03452L43.2535 3.01177C43.2785 3.02784 43.2784 3.07137 43.247 3.09125L40.2226 4.93431C39.5444 5.36394 39.5473 6.3406 40.222 6.75949L44.3971 9.23475C44.7393 9.44738 45.1847 9.44684 45.535 9.22693L49.4909 6.84622L49.4992 6.84113Z" fill="#4997CC"/>
<path fill-rule="evenodd" clip-rule="evenodd" d="M11.7942 61.827H8.62853V56.4958H3.18523V61.827H0V48.3479H3.18523V53.5986H8.62853V48.3479H11.7942V61.827ZM18.2939 65.5337H14.9345L16.5073 61.7882L12.4681 52.0546H15.8085L18.1192 57.9229L20.5853 52.0546H23.9253L18.2939 65.5337ZM32.7015 57.067C32.7015 55.5184 31.7214 54.4528 30.376 54.4528C29.1264 54.4528 28.0117 55.5184 28.0117 57.067C28.0117 58.6357 29.1264 59.6815 30.376 59.6815C31.7214 59.6815 32.7015 58.6357 32.7015 57.067ZM35.7195 57.067C35.7195 60.2648 33.5665 62.4164 31.0102 62.4164C29.7609 62.4164 28.7613 62.0145 28.0117 61.3106V65.5337H24.9362V52.0193H28.0117V52.8238C28.7613 52.1199 29.7609 51.7177 31.0102 51.7177C33.5665 51.7177 35.7195 53.8897 35.7195 57.067ZM43.8069 56.9406C43.8069 55.4436 42.7657 54.4135 41.5985 54.4135C40.342 54.4135 39.4262 55.4436 39.4262 56.9406C39.4262 58.4571 40.342 59.4681 41.5985 59.4681C42.7657 59.4681 43.8069 58.4571 43.8069 56.9406ZM46.8397 61.8697H43.8602V61.0842C43.1337 61.7715 42.1656 62.1639 40.9554 62.1639C38.4788 62.1639 36.3934 60.0631 36.3934 56.9408C36.3934 53.8385 38.4788 51.7177 40.9554 51.7177C42.1656 51.7177 43.1337 52.1104 43.8602 52.7977V52.0122H46.8397V61.8697ZM59.1515 51.9332L55.9853 52.6004C55.751 51.3266 54.7346 50.6998 53.6988 50.6998C52.6239 50.6998 51.94 51.3064 51.94 52.0747C51.94 52.6206 52.1744 53.025 52.9951 53.207L55.7117 53.8338C57.9788 54.3595 59.3078 55.6334 59.3078 57.7763C59.3078 60.6677 56.8255 62.1639 53.9136 62.1639C50.9627 62.1639 48.5393 60.7081 48.1876 58.0594L51.5097 57.3925C51.8422 58.7873 52.7802 59.3939 54.0894 59.3939C55.3015 59.3939 56.0243 58.8277 56.0243 57.999C56.0243 57.3925 55.751 57.0083 54.8126 56.8058L52.0765 56.1995C50.2005 55.7547 48.5588 54.7437 48.5588 52.2769C48.5588 49.6484 50.6695 48.0109 53.7381 48.0109C56.5912 48.0109 58.6629 49.4667 59.1515 51.9332ZM69.7541 55.6285V61.827H66.7013V56.3128C66.7013 55.1254 66.0292 54.3203 65.0307 54.3203C63.8407 54.3203 63.0537 55.1857 63.0537 57.138V61.827H59.9818V47.337H63.0537V52.6901C63.8021 51.8851 64.8005 51.4222 66.0292 51.4222C68.2562 51.4222 69.7541 53.0926 69.7541 55.6285ZM71.3422 61.827V51.7821H74.5481V61.827H71.3422ZM74.8087 48.8206C74.8087 49.8411 74.0269 50.6015 72.9453 50.6015C71.8634 50.6015 71.102 49.8411 71.102 48.8206C71.102 47.8401 71.8634 47 72.9453 47C74.0269 47 74.8087 47.8401 74.8087 48.8206ZM83.5849 57.067C83.5849 55.5184 82.6048 54.4528 81.259 54.4528C80.0098 54.4528 78.8951 55.5184 78.8951 57.067C78.8951 58.6357 80.0098 59.6815 81.259 59.6815C82.6048 59.6815 83.5849 58.6357 83.5849 57.067ZM86.6029 57.067C86.6029 60.2648 84.4499 62.4164 81.8936 62.4164C80.644 62.4164 79.6444 62.0145 78.8951 61.3106V65.5337H75.8196V52.0193H78.8951V52.8238C79.6444 52.1199 80.644 51.7177 81.8936 51.7177C84.4499 51.7177 86.6029 53.8897 86.6029 57.067Z" fill="#4997CC"/>
</svg>
