<svg width="122" height="151" viewBox="0 0 122 151" fill="none" xmlns="http://www.w3.org/2000/svg">
<g filter="url(#filter0_d)">
<path fill-rule="evenodd" clip-rule="evenodd" d="M25.3595 63.8556C21.1028 59.7517 15.6216 66.1819 11.1268 66.1139C10.3979 69.3921 9.21709 71.7476 8.03143 72.5926C6.2481 73.8651 2.94868 78.6877 5.49005 79.2025C8.03143 79.7076 12.0889 83.7677 12.6088 80.7226C13.1045 77.6726 14.8927 73.6028 19.2077 78.6828C20.233 79.897 21.5547 81.048 22.9687 82.1019C23.6684 79.795 28.9796 79.4016 31.7396 76.6285C35.1071 73.2677 30.0632 68.3916 25.3595 63.8556ZM117.345 105.535C117.69 100.489 106.587 96.9632 105.401 99.644C104.23 102.335 101.703 102.009 99.8468 98.9884C98.0003 95.953 101.538 93.0973 99.6913 92.7622C97.8302 92.4271 95.4832 88.2213 95.9983 86.5458C96.4988 84.8654 93.1313 74.108 87.4169 72.7627C81.6927 71.4223 80.8569 63.3506 79.8462 58.9845C78.8355 54.6136 75.1279 56.9544 72.2804 53.2634C69.4183 49.5675 64.5396 51.4179 62.0177 51.583C59.5006 51.753 62.0177 46.8673 66.0508 44.1864C70.0888 41.4958 74.8072 27.2028 74.8072 24.3569C74.8072 21.4915 57.1487 21.6566 53.7813 23.3467C50.4138 25.0222 47.0561 20.8261 49.9085 19.646C52.7705 18.4707 58.83 12.5893 58.4899 10.2338C58.1594 7.88325 62.7028 5.69778 60.176 3.5123C57.6541 1.33168 57.3139 6.3777 55.1273 8.05323C52.9455 9.73362 48.0619 9.23339 42.848 8.22321C37.634 7.21304 35.6174 14.6048 35.7827 17.8004C35.9576 20.9961 29.7281 22.8416 30.7291 25.5322C31.7398 28.2227 29.558 30.2334 27.8815 28.7181C26.2051 27.2077 24.3537 23.5118 20.9863 26.1975C17.6188 28.8929 24.8542 32.4237 29.2227 32.9336C33.596 33.4339 25.8698 36.6295 25.0243 41.321C24.1885 46.0416 30.7339 44.0213 31.0838 47.3772C31.4239 50.738 21.6617 51.2431 21.6617 54.4339C21.6617 57.6392 27.2158 52.9186 29.7329 51.583C32.2597 50.2329 28.3966 59.475 34.4512 58.4746C40.501 57.4644 38.8148 49.2324 41.0015 49.5675C43.193 49.8929 39.9956 53.9288 41.847 57.4644C43.6838 60.9903 37.4688 66.3763 37.8041 68.8968C38.1394 71.4223 50.2486 71.4223 54.1165 67.3816C57.9894 63.3457 59.8261 67.7167 57.1439 70.7424C54.4518 73.7632 55.6229 76.6286 58.9952 77.8039C62.3578 78.9792 63.5435 79.3191 62.0274 81.9951C60.5113 84.6954 61.8524 89.7268 61.0118 92.2474C60.176 94.768 49.7481 94.4329 49.408 92.7525C49.0727 91.0721 44.6945 92.2474 45.8801 94.5932C47.0561 96.9535 42.1726 99.4741 42.5127 101.664C42.8577 103.855 49.0727 103.345 49.2379 106.035C49.4031 108.721 44.6945 111.907 38.3143 113.762C31.9196 115.608 39.6506 120.659 42.6779 118.468C45.7052 116.288 45.0395 119.979 49.408 119.979C53.7813 119.979 56.483 123.514 61.3471 121.669C66.2258 119.818 66.0605 121.669 62.3627 124.52C58.6551 127.39 53.1107 124.359 49.7481 126.205C46.3855 128.05 32.7019 140.877 35.287 144.029C36.8031 145.869 38.8148 141.338 43.6886 139.318C48.5722 137.302 49.408 140.658 52.1048 140.993C54.7968 141.338 54.9572 135.452 57.1487 135.952C59.3354 136.457 61.3471 134.107 65.3802 134.782C69.4231 135.457 72.2804 133.941 74.2969 132.261C76.3135 130.581 81.6878 135.612 83.3837 134.447C85.0553 133.261 92.4608 131.916 96.1635 132.081C99.8516 132.261 109.444 127.885 111.961 125.53C114.488 123.179 110.445 122.679 107.092 123.179C103.724 123.689 104.395 119.823 107.933 116.458C111.46 113.107 117.014 110.576 117.345 105.535ZM16.2757 21.1612C20.819 20.996 26.0281 13.2643 23.8463 11.0691C21.6548 8.8885 12.8936 21.2777 16.2757 21.1612Z" fill="#EEEEF6"/>
</g>
<defs>
<filter id="filter0_d" x="0.267491" y="0.8268" width="121.381" height="150.076" filterUnits="userSpaceOnUse" color-interpolation-filters="sRGB">
<feFlood flood-opacity="0" result="BackgroundImageFix"/>
<feColorMatrix in="SourceAlpha" type="matrix" values="0 0 0 0 0 0 0 0 0 0 0 0 0 0 0 0 0 0 127 0"/>
<feOffset dy="2.14775"/>
<feGaussianBlur stdDeviation="2.14775"/>
<feColorMatrix type="matrix" values="0 0 0 0 0 0 0 0 0 0 0 0 0 0 0 0 0 0 0.01 0"/>
<feBlend mode="normal" in2="BackgroundImageFix" result="effect1_dropShadow"/>
<feBlend mode="normal" in="SourceGraphic" in2="effect1_dropShadow" result="shape"/>
</filter>
</defs>
</svg>
