<svg width="16" height="16" viewBox="0 0 16 16" fill="none" xmlns="http://www.w3.org/2000/svg">
<path fill-rule="evenodd" clip-rule="evenodd" d="M7.83293 15.744C9.87616 15.744 11.8357 14.9323 13.2805 13.4875C14.7253 12.0427 15.537 10.0832 15.537 8.03996C15.537 5.99673 14.7253 4.03718 13.2805 2.59239C11.8357 1.14761 9.87616 0.335938 7.83293 0.335938C5.7897 0.335938 3.83015 1.14761 2.38536 2.59239C0.940578 4.03718 0.128906 5.99673 0.128906 8.03996C0.128906 10.0832 0.940578 12.0427 2.38536 13.4875C3.83015 14.9323 5.7897 15.744 7.83293 15.744ZM8.72852 6.6802L6.52325 6.95658L6.44428 7.32252L6.87763 7.40245C7.16075 7.46986 7.21661 7.57194 7.15498 7.8541L6.44428 11.1938C6.25746 12.0576 6.5454 12.464 7.22239 12.464C7.74722 12.464 8.3568 12.2213 8.63319 11.8881L8.71793 11.4875C8.52533 11.657 8.24413 11.7244 8.05731 11.7244C7.79248 11.7244 7.69618 11.5386 7.76456 11.2111L8.72852 6.6802ZM7.83293 5.63245C8.08833 5.63245 8.33328 5.53099 8.51388 5.3504C8.69447 5.1698 8.79593 4.92486 8.79593 4.66945C8.79593 4.41405 8.69447 4.1691 8.51388 3.9885C8.33328 3.80791 8.08833 3.70645 7.83293 3.70645C7.57753 3.70645 7.33258 3.80791 7.15198 3.9885C6.97139 4.1691 6.86993 4.41405 6.86993 4.66945C6.86993 4.92486 6.97139 5.1698 7.15198 5.3504C7.33258 5.53099 7.57753 5.63245 7.83293 5.63245Z" fill="#5489BD"/>
</svg>
